<svg xmlns:xlink="http://www.w3.org/1999/xlink" xmlns="http://www.w3.org/2000/svg" viewBox="0 0 370.3478260869565 44.4170947968472" preserveAspectRatio="xMidYMid meet" class="css-1r4bsbq" id="dheddbad" width="370.3478260869565"  height="44.4170947968472" ><defs id="SvgjsDefs2440"></defs><g id="SvgjsG2441" featurekey="symbolFeature-0" transform="matrix(0.5567338282078473,0,0,0.5567338282078473,-5.010604453870626,-5.183987168466805)" fill="#FF006C"><path xmlns="http://www.w3.org/2000/svg" d="M25,56.7v-12H11c-1.1,0-2,0.9-2,2v30c0,1.1,0.9,2,2,2h5c0.6,0,1.2,0.3,1.6,0.8l4.4,5.9l4.4-5.9c0.4-0.5,1-0.8,1.6-0.8h27  c1.1,0,2-0.9,2-2v-14H31C27.7,62.7,25,60,25,56.7z M24.4,72.1c-0.4,0.4-0.9,0.6-1.4,0.6c-0.3,0-0.5,0-0.8-0.2  c-0.2-0.1-0.5-0.2-0.6-0.4c-0.4-0.4-0.6-0.9-0.6-1.4c0-0.5,0.2-1,0.6-1.4c0.8-0.8,2.1-0.8,2.8,0c0.4,0.4,0.6,0.9,0.6,1.4  C25,71.2,24.8,71.7,24.4,72.1z M41.6,69.3c0.1-0.1,0.2-0.2,0.3-0.2s0.2-0.1,0.3-0.2c0.1,0,0.2-0.1,0.4-0.1c0.7-0.1,1.3,0.1,1.8,0.5  c0.4,0.4,0.6,0.9,0.6,1.4c0,0.5-0.2,1-0.6,1.4c-0.1,0.1-0.2,0.2-0.3,0.2c-0.1,0.1-0.2,0.1-0.3,0.2s-0.2,0.1-0.4,0.1  c-0.1,0-0.3,0-0.4,0c-0.3,0-0.5,0-0.8-0.2c-0.2-0.1-0.5-0.2-0.6-0.4c-0.4-0.4-0.6-0.9-0.6-1.4C41,70.1,41.2,69.6,41.6,69.3z   M34.4,69.3c0.4,0.4,0.6,0.9,0.6,1.4c0,0.5-0.2,1-0.6,1.4c-0.2,0.2-0.4,0.3-0.6,0.4c-0.2,0.1-0.5,0.2-0.8,0.2c-0.5,0-1-0.2-1.4-0.6  c-0.4-0.4-0.6-0.9-0.6-1.4c0-0.5,0.2-1,0.6-1.4C32.3,68.5,33.7,68.5,34.4,69.3z M89,14.7H31c-1.1,0-2,0.9-2,2v40c0,1.1,0.9,2,2,2h41  c0.6,0,1.2,0.3,1.6,0.8l4.4,5.9l4.4-5.9c0.4-0.5,1-0.8,1.6-0.8h5c1.1,0,2-0.9,2-2v-40C91,15.6,90.1,14.7,89,14.7z M76.1,34.8  l-6.6,6.4l1.6,9.1c0.1,0.8-0.2,1.5-0.8,2c-0.4,0.2-0.8,0.4-1.2,0.4c-0.3,0-0.6-0.1-0.9-0.2L60,48.2l-8.2,4.3  c-0.7,0.3-1.5,0.3-2.1-0.2c-0.6-0.5-0.9-1.2-0.8-2l1.6-9.1l-6.6-6.4c-0.5-0.5-0.7-1.3-0.5-2c0.2-0.7,0.9-1.2,1.6-1.4l9.1-1.3  l4.1-8.3c0.3-0.7,1-1.1,1.8-1.1s1.5,0.4,1.8,1.1l4.1,8.3l9.1,1.3c0.8,0.1,1.4,0.6,1.6,1.4C76.9,33.5,76.7,34.3,76.1,34.8z   M64.3,33.9l6.2,0.9L66,39.1c-0.5,0.5-0.7,1.1-0.6,1.8l1,6.1l-5.5-2.9c-0.3-0.2-0.6-0.2-0.9-0.2s-0.6,0.1-0.9,0.2l-5.5,2.9l1-6.1  c0.1-0.6-0.1-1.3-0.6-1.8l-4.5-4.3l6.2-0.9c0.7-0.1,1.2-0.5,1.5-1.1l2.8-5.6l2.8,5.6C63,33.4,63.6,33.8,64.3,33.9z" fill="#FF006C"></path></g><g id="SvgjsG2442" featurekey="nameFeature-0" transform="matrix(0.6288078708139099,0,0,0.6288078708139099,66.04098258848123,-7.143257196561966)" fill="#FFFFFF"><path d="M20.72 11.36 c10.64 0 14.72 3.4 14.08 6.32 l-3.44 16.36 c-0.6 2.92 -6.12 6.4 -16.76 6.4 c-11.76 0 -15.2 -3.48 -14.6 -6.4 l3.48 -16.36 c0.28 -1.12 1.04 -2.08 1.96 -2.8 c0.64 -0.72 1.04 -2.04 -2.8 -3.12 z M20.72 33.96 l3.44 -16.24 c0.16 -0.84 -1.2 -2.36 -4.28 -2.36 c-3.72 0 -5.6 1.52 -5.76 2.28 l-3.44 16.32 c-0.2 0.92 1.04 2.4 4.76 2.4 c3.08 0 5.12 -1.56 5.28 -2.4 z M61.36 11.84 c10.08 0 14.16 3.52 13.2 8.04 c-1.24 5.84 -9.16 8.8 -17.12 8.8 c-0.68 0 -5 -0.04 -5.64 -0.04 c-1.04 4.12 -3.8 11.36 -12.92 11.36 l5.08 -24.16 l2.72 0 c-0.88 -2.36 -4.52 -3.8 -5 -4 c0 0 -0.04 0 19.68 0 z M64.56 19.88 c0.48 -2.24 -0.24 -4.04 -4.48 -4.04 l-5.6 0 l-1.8 8.56 l2.12 0 c6.88 0 8.92 -0.4 9.76 -4.52 z M90.28 11.84 c3.2 0.12 3.36 2.16 3.28 3.16 c-3.08 14.44 -3.08 14.48 -3.08 14.48 c-0.84 3.48 -3.48 10.52 -12.8 10.52 l5.08 -24.16 l2.76 0 c-1 -2.52 -5.08 -4 -5.08 -4 l9.84 0 z M130.4 11.84 c3.44 0.12 3.36 2.56 3.2 3.4 l-5.2 24.76 l-10.6 0 l-7.04 -16.12 l-0.16 0 c-1.08 4.76 -2.6 16.12 -14 16.12 l5.08 -24.16 l2.72 0 c-0.8 -1.84 -3.08 -3.52 -5.04 -4 l14.36 0 l6.56 15.6 l0.16 0 l3.28 -15.6 l6.68 0 z M149.36 11.84 c3.2 0.12 3.36 2.16 3.28 3.16 c-3.08 14.44 -3.08 14.48 -3.08 14.48 c-0.84 3.48 -3.48 10.52 -12.8 10.52 l5.08 -24.16 l2.76 0 c-1 -2.52 -5.08 -4 -5.08 -4 l9.84 0 z M176.32 11.52 c10.6 0 14.6 3.4 14 6.28 l-3.44 16.28 c-0.6 2.88 -6.08 6.36 -16.68 6.36 c-11.68 0 -15.12 -3.48 -14.48 -6.36 l3.4 -16.28 c0.16 -0.64 0.48 -1.28 1.04 -1.88 l4.52 0 c-1.04 -2.12 -4.08 -3.52 -6.36 -4.04 l17.08 -0.36 l0.92 0 z M176.32 34 l3.4 -16.16 c0.2 -0.84 -1.2 -2.36 -4.24 -2.36 c-3.72 0 -5.56 1.52 -5.76 2.28 l-3.4 16.24 c-0.2 0.92 1 2.4 4.76 2.4 c3.04 0 5.08 -1.56 5.24 -2.4 z M227.51999999999998 11.84 c3.44 0.12 3.36 2.56 3.2 3.4 l-5.2 24.76 l-10.6 0 l-7.04 -16.12 l-0.16 0 c-1.08 4.76 -2.6 16.12 -14 16.12 l5.08 -24.16 l2.72 0 c-0.8 -1.84 -3.08 -3.52 -5.04 -4 l14.36 0 l6.56 15.6 l0.16 0 l3.28 -15.6 l6.68 0 z M253.95999999999998 11.600000000000001 c9 0 14.84 2.56 14.04 6.28 l-0.4 1.96 l-10.6 0 l0.24 -1.16 c0.4 -1.96 -1.56 -3.04 -4.12 -3.04 c-2.72 0 -4.92 0.92 -5.2 2.2 c-0.24 1.2 0.04 2.12 2.24 3.48 l9.36 5.76 c3.76 2.28 6.08 3.8 5.36 7.16 c-0.84 4.04 -8.52 6.32 -17 6.32 c-8.56 0 -14.96 -2.32 -14.12 -6.32 l0.64 -2.96 l10.68 0 l-0.56 2.64 c-0.36 1.72 1.48 2.56 4.2 2.56 c2.64 0 4.96 -0.92 5.32 -2.56 c0.28 -1.52 -0.72 -2.64 -2.68 -3.84 l-7.92 -4.32 c-4.92 -3.12 -7.12 -4 -6.28 -7.88 c0.12 -0.72 0.52 -1.4 1.12 -2.04 l3.84 0 c-1.2 -2.32 -4.12 -3.36 -5.88 -3.88 l17.08 -0.36 l0.64 0 z M293.72 11.68 c10.12 0 14.24 3.56 13.28 8.08 c-1.24 5.88 -9.2 8.88 -17.2 8.88 c-0.68 0 -5.04 -0.04 -5.72 -0.04 c-1 4.12 -3.8 11.4 -12.96 11.4 l5.24 -24.84 c0.08 -0.56 0.2 -2.44 -2.48 -3.48 l3.2 0 l2.8 0 l13.84 0 z M296.92 19.76 c0.48 -2.24 -0.24 -4.04 -4.48 -4.04 l-5.64 0 l-1.8 8.6 l2.12 0 c6.88 0 8.96 -0.4 9.8 -4.56 z M326.47999999999996 15.079999999999998 l-4.4 20.92 l13.92 0 l-0.88 4 l-24.48 0 l5.08 -24.16 l2.76 0 c-0.96 -2.52 -5.04 -4 -5.04 -4 l9.8 0 c3.24 0.12 3.36 2.24 3.24 3.24 z M362 11.84 c2.28 0 3.2 1.48 3.6 2.56 l6.32 29.48 l-10.6 0 l-1.36 -10.44 l-10.28 0 c-2.08 3.28 -5.44 6.56 -13.52 6.56 l15.68 -24.16 l3.44 0 c-0.8 -1.88 -3.52 -3.16 -4.84 -3.72 c-0.2 -0.12 -0.52 -0.24 -0.76 -0.28 l12.32 0 z M352.32 29.36 l6.8 0 l-1.12 -10.08 l-0.24 0 z M410 11.84 c3.44 0.12 3.36 2.56 3.2 3.4 l-5.2 24.76 l-10.6 0 l-7.04 -16.12 l-0.16 0 c-1.08 4.76 -2.6 16.12 -14 16.12 l5.08 -24.16 l2.72 0 c-0.8 -1.84 -3.08 -3.52 -5.04 -4 l14.36 0 l6.56 15.6 l0.16 0 l3.28 -15.6 l6.68 0 z M443.96000000000004 11.84 c3.36 0.12 3.36 2.44 3.24 3.36 l-0.16 0.64 l-15 0 l-1.44 6.92 l10.76 0 l-0.84 4.04 l-10.8 0 l-1.92 9.2 l16.2 0 l-0.84 4 l-26.8 0 l5.08 -24.16 l2.76 0 c-0.92 -2.36 -4.52 -3.8 -5.04 -4 c0 0 -0.04 0 24.8 0 z M480.76000000000005 11.760000000000002 c3.28 0.12 3.36 2.32 3.08 3.96 l-10.92 0 l-2.72 12.84 c-0.92 3.88 -3.72 11.36 -12.96 11.36 l-0.04 0 l5.12 -24.2 l-5.96 -0.04 c-1.16 -1.76 -3.52 -3.4 -5.56 -3.92 l29.96 0 z" fill="#FFFFFF"></path></g><g id="SvgjsG2443" featurekey="sloganFeature-0" transform="matrix(0.5827410201588135,0,0,0.5827410201588135,96.99999944425485,31.724995533396886)" fill="#FF006C"><path d="M13.88 5.84 c1.68 0.06 1.68 1.24 1.62 1.7 l-0.08 0.32 l-7.54 0 l-0.74 3.48 l5.42 0 l-0.42 2.02 l-5.42 0 l-0.98 4.62 l8.14 0 l-0.42 2.02 l-13.46 0 l2.64 -12.5 c0.04 -0.34 0 -1.18 -1.26 -1.66 l12.5 0 z M29.661 16.34 l6.08 -10.48 l5.66 0 l-9.84 14.16 l-5.66 0 l-3.22 -12.62 c-0.12 -0.4 -0.46 -1.12 -1.5 -1.54 l2.16 0 c0.22 0.02 0.48 0.04 0.76 0.1 c1.68 0.28 4.04 1.3 4.6 4.58 l0.86 5.8 l0.1 0 z M59.682 5.84 c1.68 0.06 1.68 1.24 1.62 1.7 l-0.08 0.32 l-7.54 0 l-0.74 3.48 l5.42 0 l-0.42 2.02 l-5.42 0 l-0.98 4.62 l8.14 0 l-0.42 2.02 l-13.46 0 l2.64 -12.5 c0.04 -0.34 0 -1.18 -1.26 -1.66 l12.5 0 z M78.84299999999999 5.84 c5.12 0 7.18 1.78 6.7 4.04 c-0.46 2.12 -2.66 3.46 -5.34 4.08 l4.34 6.04 l-5.52 0 l-3.88 -5.7 l-1.7 0 c-0.5 2.06 -1.9 5.7 -6.48 5.7 l2.6 -12.36 s0.36 -1.2 -1.22 -1.8 l10.5 0 z M80.463 9.88 c0.24 -1.12 -0.12 -2.02 -2.22 -2.02 l-3.44 0 l-0.9 4.3 l1.7 0 c3.44 0 4.42 -0.2 4.86 -2.28 z M104.964 5.800000000000001 l5.24 0 l-8.04 8.66 c-1.08 4.1 -2.46 7.3 -6.82 7.32 l1.66 -7.32 l-3.66 -7.2 c-0.2 -0.3 -0.9 -1.28 -1.76 -1.46 l6.22 0 l2.18 6.84 l0.1 0 z M136.426 5.68 c5.32 0 7.36 1.7 7.04 3.16 l-1.72 8.18 c-0.3 1.46 -3.06 3.2 -8.38 3.2 c-5.88 0 -7.6 -1.74 -7.3 -3.2 l1.74 -8.18 c0.14 -0.56 0.52 -1.04 0.98 -1.4 c0.32 -0.36 0.52 -1.02 -1.4 -1.56 z M136.426 16.98 l1.72 -8.12 c0.08 -0.42 -0.6 -1.18 -2.14 -1.18 c-1.86 0 -2.8 0.76 -2.88 1.14 l-1.72 8.16 c-0.1 0.46 0.52 1.2 2.38 1.2 c1.54 0 2.56 -0.78 2.64 -1.2 z M160.727 5.84 c5.06 0 7.12 1.78 6.64 4.04 c-0.62 2.94 -4.6 4.44 -8.6 4.44 c-0.34 0 -2.52 -0.02 -2.86 -0.02 c-0.5 2.06 -1.9 5.7 -6.48 5.7 l2.62 -12.42 c0.04 -0.28 0.1 -1.22 -1.24 -1.74 l1.6 0 l1.4 0 l6.92 0 z M162.327 9.88 c0.24 -1.12 -0.12 -2.02 -2.24 -2.02 l-2.82 0 l-0.9 4.3 l1.06 0 c3.44 0 4.48 -0.2 4.9 -2.28 z M179.448 5.84 c1.6 0.06 1.68 1.1 1.64 1.6 c-1.54 7.26 -1.54 7.26 -1.54 7.28 c-0.42 1.74 -1.76 5.28 -6.44 5.28 l2.62 -12.46 c0.04 -0.28 0.08 -1.2 -1.24 -1.7 l4.96 0 z M203.82899999999998 5.84 c1.72 0.08 1.68 1.3 1.62 1.72 l-2.62 12.44 l-5.34 0 l-3.52 -8.1 l-0.08 0 c-0.56 2.4 -1.32 8.1 -7.04 8.1 l2.62 -12.46 c0.06 -0.32 0.06 -1.2 -1.24 -1.7 l7.22 0 l3.3 7.86 l0.08 0 l1.66 -7.86 l3.34 0 z M217.54999999999998 5.84 c1.6 0.06 1.68 1.1 1.64 1.6 c-1.54 7.26 -1.54 7.26 -1.54 7.28 c-0.42 1.74 -1.76 5.28 -6.44 5.28 l2.62 -12.46 c0.04 -0.28 0.08 -1.2 -1.24 -1.7 l4.96 0 z M235.31099999999998 5.68 c5.32 0 7.36 1.7 7.04 3.16 l-1.72 8.18 c-0.3 1.46 -3.06 3.2 -8.38 3.2 c-5.88 0 -7.6 -1.74 -7.3 -3.2 l1.74 -8.18 c0.14 -0.56 0.52 -1.04 0.98 -1.4 c0.32 -0.36 0.52 -1.02 -1.4 -1.56 z M235.31099999999998 16.98 l1.72 -8.12 c0.08 -0.42 -0.6 -1.18 -2.14 -1.18 c-1.86 0 -2.8 0.76 -2.88 1.14 l-1.72 8.16 c-0.1 0.46 0.52 1.2 2.38 1.2 c1.54 0 2.56 -0.78 2.64 -1.2 z M265.292 5.84 c1.72 0.08 1.68 1.3 1.62 1.72 l-2.62 12.44 l-5.34 0 l-3.52 -8.1 l-0.08 0 c-0.56 2.4 -1.32 8.1 -7.04 8.1 l2.62 -12.46 c0.06 -0.32 0.06 -1.2 -1.24 -1.7 l7.22 0 l3.3 7.86 l0.08 0 l1.66 -7.86 l3.34 0 z M294.99399999999997 5.619999999999999 c5.38 0 7.44 1.74 7.14 3.18 l-0.24 1.12 l-5.36 0 l0.22 -1.12 c0.1 -0.42 -0.64 -1.14 -2.18 -1.14 c-1.88 0 -2.84 0.72 -2.92 1.14 l-1.72 8.18 c-0.1 0.42 0.56 1.14 2.44 1.14 c1.52 0 2.58 -0.72 2.66 -1.14 l0.24 -1.12 l5.36 0 l-0.24 1.12 c-0.3 1.44 -3.08 3.18 -8.46 3.18 c-5.88 0 -7.72 -1.74 -7.42 -3.16 l1.72 -8.2 c0.08 -0.38 0.34 -0.78 0.74 -1.16 c0 0 1.34 -1.06 -1.1 -1.82 z M318.155 5.68 c5.32 0 7.36 1.7 7.04 3.16 l-1.72 8.18 c-0.3 1.46 -3.06 3.2 -8.38 3.2 c-5.88 0 -7.6 -1.74 -7.3 -3.2 l1.74 -8.18 c0.14 -0.56 0.52 -1.04 0.98 -1.4 c0.32 -0.36 0.52 -1.02 -1.4 -1.56 z M318.155 16.98 l1.72 -8.12 c0.08 -0.42 -0.6 -1.18 -2.14 -1.18 c-1.86 0 -2.8 0.76 -2.88 1.14 l-1.72 8.16 c-0.1 0.46 0.52 1.2 2.38 1.2 c1.54 0 2.56 -0.78 2.64 -1.2 z M347.256 5.859999999999999 c1.7 0.06 1.68 1.24 1.62 1.7 l-2 9.48 c-0.32 1.44 -3.06 3.16 -8.38 3.16 c-5.84 0 -7.64 -1.72 -7.34 -3.16 l2 -9.52 c0.04 -0.34 0 -1.18 -1.24 -1.66 l2.56 0 c0.22 0.02 0.26 0.02 0.4 0.04 c2.94 0.42 3.22 2.72 3.04 4.28 l-0.3 1.48 l-1.14 5.36 c-0.08 0.42 0.56 1.16 2.44 1.16 c1.54 0 2.54 -0.74 2.64 -1.16 l2.34 -11.16 l3.36 0 z M372.07699999999994 5.84 c1.72 0.08 1.68 1.3 1.62 1.72 l-2.62 12.44 l-5.34 0 l-3.52 -8.1 l-0.08 0 c-0.56 2.4 -1.32 8.1 -7.04 8.1 l2.62 -12.46 c0.06 -0.32 0.06 -1.2 -1.24 -1.7 l7.22 0 l3.3 7.86 l0.08 0 l1.66 -7.86 l3.34 0 z M393.7979999999999 5.84 c1.64 0.06 1.68 1.18 1.54 2 l-5.5 0 l-1.36 6.46 c-0.46 1.94 -1.86 5.7 -6.52 5.7 l2.56 -12.16 l-2.42 0 l-0.28 0 c-0.4 0 -1.14 -0.1 -1.56 -0.5 c-0.08 -0.08 -0.14 -0.18 -0.18 -0.3 c-0.18 -0.4 -0.42 -0.66 -0.66 -0.84 c-0.36 -0.28 -0.68 -0.36 -0.68 -0.36 l15.06 0 z M410.7389999999999 5.76 c4.52 0 7.44 1.28 7.04 3.16 l-0.2 0.98 l-5.32 0 l0.12 -0.58 c0.2 -1 -0.78 -1.54 -2.06 -1.54 c-1.36 0 -2.48 0.46 -2.62 1.12 c-0.14 0.6 0.02 1.06 1.12 1.74 l4.72 2.88 c1.88 1.16 3.04 1.92 2.68 3.6 c-0.42 2.04 -4.28 3.18 -8.54 3.18 c-4.3 0 -7.52 -1.16 -7.08 -3.18 l0.3 -1.48 l5.38 0 l-0.28 1.32 c-0.18 0.88 0.74 1.3 2.1 1.3 c1.32 0 2.48 -0.46 2.66 -1.3 c0.16 -0.74 -0.36 -1.32 -1.34 -1.92 l-3.96 -2.16 c-2.48 -1.58 -3.58 -2.02 -3.18 -3.96 c0.1 -0.5 0.4 -0.94 0.88 -1.32 c0 0 1.32 -0.94 -1.32 -1.66 c8.68 -0.18 8.78 -0.18 8.9 -0.18 z" fill="#FF006C"></path></g></svg>