<svg xmlns:xlink="http://www.w3.org/1999/xlink" xmlns="http://www.w3.org/2000/svg" class="css-ze2te4 css-qd6ojx" viewBox="0 0 45.652173913043484 39.361084202820024" width="110"  height="95" ><g transform="translate(-5.010604453870626, -8.183987168466805) scale(0.5567338282078473)" class="css-1lbhu5y" fill="#FF006C"><path xmlns="http://www.w3.org/2000/svg" d="M25,56.7v-12H11c-1.1,0-2,0.9-2,2v30c0,1.1,0.9,2,2,2h5c0.6,0,1.2,0.3,1.6,0.8l4.4,5.9l4.4-5.9c0.4-0.5,1-0.8,1.6-0.8h27  c1.1,0,2-0.9,2-2v-14H31C27.7,62.7,25,60,25,56.7z M24.4,72.1c-0.4,0.4-0.9,0.6-1.4,0.6c-0.3,0-0.5,0-0.8-0.2  c-0.2-0.1-0.5-0.2-0.6-0.4c-0.4-0.4-0.6-0.9-0.6-1.4c0-0.5,0.2-1,0.6-1.4c0.8-0.8,2.1-0.8,2.8,0c0.4,0.4,0.6,0.9,0.6,1.4  C25,71.2,24.8,71.7,24.4,72.1z M41.6,69.3c0.1-0.1,0.2-0.2,0.3-0.2s0.2-0.1,0.3-0.2c0.1,0,0.2-0.1,0.4-0.1c0.7-0.1,1.3,0.1,1.8,0.5  c0.4,0.4,0.6,0.9,0.6,1.4c0,0.5-0.2,1-0.6,1.4c-0.1,0.1-0.2,0.2-0.3,0.2c-0.1,0.1-0.2,0.1-0.3,0.2s-0.2,0.1-0.4,0.1  c-0.1,0-0.3,0-0.4,0c-0.3,0-0.5,0-0.8-0.2c-0.2-0.1-0.5-0.2-0.6-0.4c-0.4-0.4-0.6-0.9-0.6-1.4C41,70.1,41.2,69.6,41.6,69.3z   M34.4,69.3c0.4,0.4,0.6,0.9,0.6,1.4c0,0.5-0.2,1-0.6,1.4c-0.2,0.2-0.4,0.3-0.6,0.4c-0.2,0.1-0.5,0.2-0.8,0.2c-0.5,0-1-0.2-1.4-0.6  c-0.4-0.4-0.6-0.9-0.6-1.4c0-0.5,0.2-1,0.6-1.4C32.3,68.5,33.7,68.5,34.4,69.3z M89,14.7H31c-1.1,0-2,0.9-2,2v40c0,1.1,0.9,2,2,2h41  c0.6,0,1.2,0.3,1.6,0.8l4.4,5.9l4.4-5.9c0.4-0.5,1-0.8,1.6-0.8h5c1.1,0,2-0.9,2-2v-40C91,15.6,90.1,14.7,89,14.7z M76.1,34.8  l-6.6,6.4l1.6,9.1c0.1,0.8-0.2,1.5-0.8,2c-0.4,0.2-0.8,0.4-1.2,0.4c-0.3,0-0.6-0.1-0.9-0.2L60,48.2l-8.2,4.3  c-0.7,0.3-1.5,0.3-2.1-0.2c-0.6-0.5-0.9-1.2-0.8-2l1.6-9.1l-6.6-6.4c-0.5-0.5-0.7-1.3-0.5-2c0.2-0.7,0.9-1.2,1.6-1.4l9.1-1.3  l4.1-8.3c0.3-0.7,1-1.1,1.8-1.1s1.5,0.4,1.8,1.1l4.1,8.3l9.1,1.3c0.8,0.1,1.4,0.6,1.6,1.4C76.9,33.5,76.7,34.3,76.1,34.8z   M64.3,33.9l6.2,0.9L66,39.1c-0.5,0.5-0.7,1.1-0.6,1.8l1,6.1l-5.5-2.9c-0.3-0.2-0.6-0.2-0.9-0.2s-0.6,0.1-0.9,0.2l-5.5,2.9l1-6.1  c0.1-0.6-0.1-1.3-0.6-1.8l-4.5-4.3l6.2-0.9c0.7-0.1,1.2-0.5,1.5-1.1l2.8-5.6l2.8,5.6C63,33.4,63.6,33.8,64.3,33.9z" fill="#FF006C"></path></g></svg>